<?xml version="1.0" encoding="utf-8"?>
<!-- Generator: Adobe Illustrator 27.9.0, SVG Export Plug-In . SVG Version: 6.00 Build 0)  -->
<svg version="1.1" id="Layer_1" xmlns="http://www.w3.org/2000/svg" xmlns:xlink="http://www.w3.org/1999/xlink" x="0px" y="0px"
	 viewBox="0 0 24 24" style="enable-background:new 0 0 24 24;" xml:space="preserve">
<style type="text/css">
	.st0{fill:#FFFFFF;}
</style>
<rect x="2" y="3.7" transform="matrix(-1 -1.224647e-16 1.224647e-16 -1 6.0098 19.3039)" class="st0" width="2" height="12"/>
<rect x="3" y="15.7" transform="matrix(-1 -1.224647e-16 1.224647e-16 -1 9.0098 33.3039)" class="st0" width="3" height="2"/>
<rect x="7" y="19.7" transform="matrix(-1 -1.224647e-16 1.224647e-16 -1 17.0098 41.3039)" class="st0" width="3" height="2"/>
<rect x="9" y="21.7" transform="matrix(-1 -1.224647e-16 1.224647e-16 -1 21.0098 45.3039)" class="st0" width="3" height="2"/>
<rect x="5" y="17.7" transform="matrix(-1 -1.224647e-16 1.224647e-16 -1 13.0098 37.3039)" class="st0" width="3" height="2"/>
<rect x="20" y="3.7" class="st0" width="2" height="12"/>
<rect x="18" y="15.7" class="st0" width="3" height="2"/>
<rect x="17" y="2.7" class="st0" width="3" height="2"/>
<rect x="14" y="1.7" class="st0" width="3" height="2"/>
<rect x="12" y="0.7" class="st0" width="2" height="2"/>
<rect x="4" y="2.7" transform="matrix(-1 -1.224647e-16 1.224647e-16 -1 11.0098 7.3039)" class="st0" width="3" height="2"/>
<rect x="7" y="1.7" transform="matrix(-1 -1.224647e-16 1.224647e-16 -1 17.0098 5.3039)" class="st0" width="3" height="2"/>
<rect x="10" y="0.7" transform="matrix(-1 2.273724e-11 -2.273724e-11 -1 22.0098 3.3039)" class="st0" width="2" height="2"/>
<rect x="14" y="19.7" class="st0" width="3" height="2"/>
<rect x="12" y="21.7" class="st0" width="3" height="2"/>
<rect x="16" y="17.7" class="st0" width="3" height="2"/>
</svg>
