<svg
  width="14"
  height="14"
  viewBox="0 0 14 14"
  fill="none"
  xmlns="http://www.w3.org/2000/svg"
>
  <path
    d="M6.125 9.625H7.875V11.375H6.125V9.625ZM9.625 3.5C10.1084 3.5 10.5 3.89156 10.5 4.375V7L7.875 8.75H6.125V7.875L8.75 6.125V5.25H4.375V3.5H9.625ZM7 1.3125C5.481 1.3125 4.05256 1.904 2.9785 2.9785C1.90444 4.053 1.3125 5.481 1.3125 7C1.3125 8.519 1.904 9.94744 2.9785 11.0215C4.053 12.0956 5.481 12.6875 7 12.6875C8.519 12.6875 9.94744 12.096 11.0215 11.0215C12.0956 9.947 12.6875 8.519 12.6875 7C12.6875 5.481 12.096 4.05256 11.0215 2.9785C9.947 1.90444 8.519 1.3125 7 1.3125ZM7 0C10.8662 0 14 3.13381 14 7C14 10.8662 10.8662 14 7 14C3.13381 14 0 10.8662 0 7C0 3.13381 3.13381 0 7 0Z"
    fill="white"
  />
</svg>
