<?xml version="1.0" encoding="utf-8"?>
<!-- Generator: Adobe Illustrator 27.9.0, SVG Export Plug-In . SVG Version: 6.00 Build 0)  -->
<svg version="1.1" id="Layer_1" xmlns="http://www.w3.org/2000/svg" xmlns:xlink="http://www.w3.org/1999/xlink" x="0px" y="0px"
	 viewBox="0 0 24 24" style="enable-background:new 0 0 24 24;" xml:space="preserve">
<style type="text/css">
	.st0{fill:url(#SVGID_1_);}
</style>
<linearGradient id="SVGID_1_" gradientUnits="userSpaceOnUse" x1="1.665" y1="12.0352" x2="22.335" y2="12.0352">
	<stop  offset="0" style="stop-color:#FD3765"/>
	<stop  offset="0.5052" style="stop-color:#9F22AA"/>
	<stop  offset="1" style="stop-color:#5247D8"/>
</linearGradient>
<path class="st0" d="M22,19.9c-0.1-0.3-2.2-6.6-7.7-8c1.9-0.9,3.2-2.8,3.2-5c0-3-2.5-5.5-5.5-5.5S6.5,3.8,6.5,6.8
	c0,2.2,1.3,4.1,3.2,5c-5.5,1.5-7.6,7.7-7.7,8l-0.3,0.9l0.9,0.3c0.2,0.1,4.3,1.7,9.5,1.7c5.1,0,9.3-1.6,9.5-1.7l0.9-0.3L22,19.9z
	 M8.5,6.8c0-1.9,1.6-3.5,3.5-3.5c1.9,0,3.5,1.6,3.5,3.5c0,1.9-1.6,3.5-3.5,3.5C10.1,10.4,8.5,8.8,8.5,6.8z M12,20.8
	c-3.3,0-6.3-0.8-7.8-1.2c0.9-1.9,3.3-6,7.8-6c4.5,0,6.9,4.1,7.8,6C18.3,20,15.3,20.8,12,20.8z"/>
</svg>
