<?xml version="1.0" encoding="utf-8"?>
<!-- Generator: Adobe Illustrator 27.9.0, SVG Export Plug-In . SVG Version: 6.00 Build 0)  -->
<svg version="1.1" id="Layer_1" xmlns="http://www.w3.org/2000/svg" xmlns:xlink="http://www.w3.org/1999/xlink" x="0px" y="0px"
	 viewBox="0 0 24 24" style="enable-background:new 0 0 24 24;" xml:space="preserve">
<style type="text/css">
	.st0{fill:#FFFFFF;}
</style>
<rect x="20.3" y="15.5" class="st0" width="2" height="6"/>
<rect x="18.3" y="13.5" class="st0" width="3" height="2"/>
<rect x="16.3" y="11.5" class="st0" width="3" height="2"/>
<rect x="7.3" y="1.5" class="st0" width="3" height="2"/>
<rect x="9.3" y="0.5" class="st0" width="3" height="2"/>
<rect x="9.3" y="9.5" transform="matrix(-1 -4.486867e-11 4.486867e-11 -1 21.5071 21)" class="st0" width="3" height="2"/>
<rect x="7.3" y="8.5" transform="matrix(-1 -4.486867e-11 4.486867e-11 -1 17.5071 19)" class="st0" width="3" height="2"/>
<rect x="6.3" y="3.5" class="st0" width="2" height="5"/>
<rect x="13.3" y="1.5" transform="matrix(-1 -4.547486e-11 4.547486e-11 -1 29.5071 5)" class="st0" width="3" height="2"/>
<rect x="11.3" y="0.5" transform="matrix(-1 -4.486867e-11 4.486867e-11 -1 25.5071 3)" class="st0" width="3" height="2"/>
<rect x="11.3" y="9.5" class="st0" width="3" height="2"/>
<rect x="13.3" y="8.5" class="st0" width="3" height="2"/>
<rect x="15.3" y="3.5" transform="matrix(-1 -4.456536e-11 4.456536e-11 -1 32.5071 12)" class="st0" width="2" height="5"/>
<rect x="4.3" y="20.5" class="st0" width="3" height="2"/>
<rect x="17.3" y="20.5" class="st0" width="3" height="2"/>
<rect x="7.3" y="21.5" class="st0" width="10" height="2"/>
<rect x="2.3" y="15.5" transform="matrix(-1 -3.637991e-11 3.637991e-11 -1 6.5071 37)" class="st0" width="2" height="6"/>
<rect x="3.3" y="13.5" transform="matrix(-1 -4.486867e-11 4.486867e-11 -1 9.5071 29)" class="st0" width="3" height="2"/>
<rect x="5.3" y="11.5" transform="matrix(-1 -2.971013e-11 2.971013e-11 -1 13.5071 25)" class="st0" width="3" height="2"/>
<rect x="8.3" y="12.5" transform="matrix(-1 -1.114143e-11 1.114143e-11 -1 24.5071 27)" class="st0" width="8" height="2"/>
</svg>
