<svg width="21" height="14" viewBox="0 0 21 14" fill="none" xmlns="http://www.w3.org/2000/svg">
<path d="M0.10999 2.35693H1.59412L1.59412 0.214076H0.10999L0.10999 2.35693Z" fill="white"/>
<path d="M1.59412 5.21411H3.07825L3.07825 3.07125H1.59412L1.59412 5.21411Z" fill="white"/>
<path d="M3.07825 6.64258H4.56238V4.49972H3.07825V6.64258Z" fill="white"/>
<path d="M3.82032 8.07129H5.30444V5.92843H3.82032V8.07129Z" fill="white"/>
<path d="M10.4989 0.214111H9.01474V2.35697H10.4989V0.214111Z" fill="white"/>
<path d="M9.01474 3.07129H7.53061V5.21415H9.01474V3.07129Z" fill="white"/>
<path d="M9.7568 1.64258H8.27267V3.78544H9.7568V1.64258Z" fill="white"/>
<path d="M2.33618 1.64258H0.852051V3.78544H2.33618V1.64258Z" fill="white"/>
<path d="M7.5306 4.49976H6.04648V6.64261H7.5306V4.49976Z" fill="white"/>
<path d="M10.4989 11.6426H9.01474V13.7854H10.4989V11.6426Z" fill="white"/>
<path d="M9.01474 8.78564H7.53061V10.9285H9.01474V8.78564Z" fill="white"/>
<path d="M7.5306 7.35693H6.04648V9.49979H7.5306V7.35693Z" fill="white"/>
<path d="M0.10999 13.7856H1.59412L1.59412 11.6428H0.10999L0.10999 13.7856Z" fill="white"/>
<path d="M1.59412 10.9285H3.07825L3.07825 8.78561H1.59412L1.59412 10.9285Z" fill="white"/>
<path d="M0.852055 12.3569H2.33618L2.33618 10.2141H0.852055L0.852055 12.3569Z" fill="white"/>
<path d="M8.27268 12.3569H9.75681V10.2141H8.27268V12.3569Z" fill="white"/>
<path d="M3.07825 9.49976H4.56238V7.3569H3.07825V9.49976Z" fill="white"/>
<path d="M6.78857 5.92847H5.30444V8.07132H6.78857V5.92847Z" fill="white"/>
<path d="M6.78857 5.92847H5.30444V8.07132H6.78857V5.92847Z" fill="white"/>
<path d="M3.82032 8.07129H5.30444V5.92843H3.82032V8.07129Z" fill="white"/>
<path d="M13.4671 1.64258L18.6616 1.64258V0.214007L13.4671 0.214007V1.64258Z" fill="white"/>
<path d="M17.9195 3.07129H19.4036V1.64272L17.9195 1.64272V3.07129Z" fill="white"/>
<path d="M18.6616 4.49976H20.1457V3.07118H18.6616V4.49976Z" fill="white"/>
<path d="M19.4036 5.92847H20.8878V4.4999H19.4036V5.92847Z" fill="white"/>
<path d="M18.6616 7.35693H20.1457V5.92836H18.6616V7.35693Z" fill="white"/>
<path d="M17.9195 8.78564H19.4036V7.35707H17.9195V8.78564Z" fill="white"/>
<path d="M13.4671 10.2141H18.6616V8.78554H13.4671V10.2141Z" fill="white"/>
<path d="M11.983 0.214217V13.7856H13.4671V0.214217H11.983Z" fill="white"/>
</svg>
