<?xml version="1.0" encoding="utf-8"?>
<!-- Generator: Adobe Illustrator 27.9.0, SVG Export Plug-In . SVG Version: 6.00 Build 0)  -->
<svg version="1.1" id="Layer_1" xmlns="http://www.w3.org/2000/svg" xmlns:xlink="http://www.w3.org/1999/xlink" x="0px" y="0px"
	 viewBox="0 0 24 24" style="enable-background:new 0 0 24 24;" xml:space="preserve">
<style type="text/css">
	.st0{fill:#FFFFFF;}
</style>
<rect x="0.8" y="0.9" class="st0" width="3" height="3"/>
<rect x="2.8" y="2.9" class="st0" width="3" height="3"/>
<rect x="4.8" y="4.9" class="st0" width="3" height="3"/>
<rect x="6.8" y="6.9" class="st0" width="3" height="3"/>
<rect x="8.8" y="8.9" class="st0" width="3" height="3"/>
<rect x="11.8" y="11.9" class="st0" width="3" height="3"/>
<rect x="13.8" y="13.9" class="st0" width="3" height="3"/>
<rect x="15.8" y="15.9" class="st0" width="3" height="3"/>
<rect x="17.8" y="17.9" class="st0" width="3" height="3"/>
<rect x="19.8" y="19.9" class="st0" width="3" height="3"/>
<rect x="0.8" y="19.9" transform="matrix(6.123234e-17 -1 1 6.123234e-17 -19.0963 23.6408)" class="st0" width="3" height="3"/>
<rect x="2.8" y="17.9" transform="matrix(6.123234e-17 -1 1 6.123234e-17 -15.0963 23.6408)" class="st0" width="3" height="3"/>
<rect x="4.8" y="15.9" transform="matrix(6.123234e-17 -1 1 6.123234e-17 -11.0963 23.6408)" class="st0" width="3" height="3"/>
<rect x="6.8" y="13.9" transform="matrix(6.123234e-17 -1 1 6.123234e-17 -7.0963 23.6408)" class="st0" width="3" height="3"/>
<rect x="8.8" y="11.9" transform="matrix(6.123234e-17 -1 1 6.123234e-17 -3.0963 23.6408)" class="st0" width="3" height="3"/>
<rect x="11.8" y="8.9" transform="matrix(6.123234e-17 -1 1 6.123234e-17 2.9037 23.6408)" class="st0" width="3" height="3"/>
<rect x="13.8" y="6.9" transform="matrix(6.123234e-17 -1 1 6.123234e-17 6.9037 23.6408)" class="st0" width="3" height="3"/>
<rect x="15.8" y="4.9" transform="matrix(6.123234e-17 -1 1 6.123234e-17 10.9037 23.6408)" class="st0" width="3" height="3"/>
<rect x="17.8" y="2.9" transform="matrix(6.123234e-17 -1 1 6.123234e-17 14.9037 23.6408)" class="st0" width="3" height="3"/>
<rect x="19.8" y="0.9" transform="matrix(6.123234e-17 -1 1 6.123234e-17 18.9037 23.6408)" class="st0" width="3" height="3"/>
</svg>
